{"accessors":[{"name":"Mountain_Cube-Mesh_positions","componentType":5126,"count":404,"min":[-5.196366786956787,0.022693999111652374,-1.8969420194625854],"max":[5.664337158203125,8.41242790222168,2.8640339374542236],"type":"VEC3","bufferView":0,"byteOffset":0},{"name":"Mountain_Cube-Mesh_normals","componentType":5126,"count":404,"min":[-0.9790999889373779,-1,-0.9991000294685364],"max":[0.9165999889373779,0.9286999702453613,0.9876000285148621],"type":"VEC3","bufferView":0,"byteOffset":4848},{"name":"Mountain_Cube-Mesh_0_indices","componentType":5123,"count":399,"min":[0],"max":[268],"type":"SCALAR","bufferView":1,"byteOffset":0},{"name":"Mountain_Cube-Mesh_1_indices","componentType":5123,"count":87,"min":[160],"max":[333],"type":"SCALAR","bufferView":1,"byteOffset":800},{"name":"Mountain_Cube-Mesh_2_indices","componentType":5123,"count":108,"min":[334],"max":[403],"type":"SCALAR","bufferView":1,"byteOffset":976}],"asset":{"generator":"obj2gltf","version":"2.0"},"buffers":[{"name":"Mountain_01","byteLength":10888,"uri":"data:application/octet-stream;base64,"}],"bufferViews":[{"name":"bufferView_0","buffer":0,"byteLength":9696,"byteOffset":0,"byteStride":12,"target":34962},{"name":"bufferView_1","buffer":0,"byteLength":1192,"byteOffset":9696,"target":34963}],"materials":[{"name":"455A64","pbrMetallicRoughness":{"baseColorFactor":[0.270588,0.352941,0.392157,1],"metallicFactor":0,"roughnessFactor":0.903921569},"emissiveFactor":[0,0,0],"alphaMode":"OPAQUE","doubleSided":false},{"name":"FFFFFF","pbrMetallicRoughness":{"baseColorFactor":[1,1,1,1],"metallicFactor":0,"roughnessFactor":0.903921569},"emissiveFactor":[0,0,0],"alphaMode":"OPAQUE","doubleSided":false},{"name":"8BC34A","pbrMetallicRoughness":{"baseColorFactor":[0.545098,0.764706,0.290196,1],"metallicFactor":0,"roughnessFactor":0.903921569},"emissiveFactor":[0,0,0],"alphaMode":"OPAQUE","doubleSided":false}],"meshes":[{"name":"Mountain_Cube-Mesh","primitives":[{"attributes":{"POSITION":0,"NORMAL":1},"indices":2,"material":0,"mode":4},{"attributes":{"POSITION":0,"NORMAL":1},"indices":3,"material":1,"mode":4},{"attributes":{"POSITION":0,"NORMAL":1},"indices":4,"material":2,"mode":4}]}],"nodes":[{"name":"Mountain_Cube","mesh":0}],"scene":0,"scenes":[{"nodes":[0]}]}
